<svg width="152" height="40" viewBox="0 0 152 40" fill="none" xmlns="http://www.w3.org/2000/svg">
<path fill-rule="evenodd" clip-rule="evenodd" d="M3.06372 18.4945C3.06369 27.4531 9.38702 35.1661 18.1716 36.9232C19.5017 37.1892 20.8714 37.1892 22.2015 36.9229H22.2019C30.9864 35.1659 37.3093 27.4529 37.3095 18.4944V12.3896C37.3095 7.13593 33.0503 2.87695 27.7967 2.87695H12.5764C7.3227 2.87695 3.06372 7.13593 3.06372 12.3896V18.4945ZM15.5418 18.0972C15.5418 17.5102 15.0659 17.0343 14.4788 17.0343C13.8918 17.0343 13.4159 17.5102 13.4159 18.0972V23.8048C13.4159 24.3919 13.8918 24.8678 14.4788 24.8678C15.0659 24.8678 15.5418 24.3919 15.5418 23.8048V18.0972ZM20.1868 16.876C20.7738 16.876 21.2497 17.3519 21.2497 17.9389V23.8051C21.2497 24.3921 20.7738 24.868 20.1868 24.868C19.5997 24.868 19.1238 24.3921 19.1238 23.8051V17.9389C19.1238 17.3519 19.5997 16.876 20.1868 16.876ZM20.1869 11.3267L20.1829 11.3267C18.9413 11.3314 17.7253 11.6799 16.6698 12.3337C16.1707 12.6428 16.0167 13.298 16.3258 13.797C16.6349 14.2961 17.2901 14.4501 17.7892 14.141C18.5102 13.6944 19.3408 13.4561 20.1889 13.4526C22.7531 13.4537 24.8314 15.5327 24.8314 18.0973V23.8049C24.8314 24.3919 25.3073 24.8678 25.8944 24.8678C26.4814 24.8678 26.9573 24.3919 26.9573 23.8049V18.0973C26.9573 14.358 23.9262 11.3267 20.1869 11.3267Z" fill="#1F2124"/>
<path d="M50.7841 24.5026V13.0819C50.7841 10.6593 51.3955 8.90585 52.6183 7.82146C53.8411 6.714 55.6984 6.16027 58.1902 6.16027H60.9243V9.27501H59.2285C57.6365 9.27501 56.506 9.66723 55.8369 10.4517C55.1678 11.2361 54.8332 12.4705 54.8332 14.1548V24.5026H50.7841Z" fill="#1F2124"/>
<path d="M62.6317 6.16027H73.0488C74.733 6.16027 76.0136 6.65632 76.8903 7.64842C77.767 8.64052 78.2054 9.9441 78.2054 11.5591V21.3879C78.2054 23.4644 77.1672 24.5026 75.0907 24.5026H65.8503C62.8047 24.5026 61.282 22.5992 61.282 18.7923C61.282 17.0157 61.6627 15.6199 62.4241 14.6047C63.1854 13.5895 64.3275 13.0819 65.8503 13.0819H74.1562V11.9052C74.1562 10.1517 73.3026 9.27501 71.5952 9.27501H62.6317V6.16027ZM74.1562 16.1967H67.4076C66.1156 16.1967 65.4696 17.0619 65.4696 18.7923C65.4696 20.5227 66.1156 21.3879 67.4076 21.3879H73.118C73.8102 21.3879 74.1562 21.0418 74.1562 20.3496V16.1967Z" fill="#1F2124"/>
<path d="M81.4042 24.5026V13.0819C81.4042 10.6593 82.0156 8.90585 83.2385 7.82146C84.4613 6.714 86.3186 6.16027 88.8104 6.16027H91.5445V9.27501H89.8486C88.2567 9.27501 87.1261 9.66723 86.457 10.4517C85.7879 11.2361 85.4534 12.4705 85.4534 14.1548V24.5026H81.4042Z" fill="#1F2124"/>
<path d="M93.1318 24.5026V6.16027H97.181V24.5026H93.1318ZM97.181 3.73769H93.1318V0H97.181V3.73769Z" fill="#1F2124"/>
<path d="M125.594 5.71036L119.399 21.8724C118.984 22.9107 118.545 23.6605 118.084 24.1219C117.622 24.5603 116.907 24.7795 115.938 24.7795C114.969 24.7795 114.254 24.5603 113.792 24.1219C113.331 23.6605 112.893 22.9107 112.477 21.8724L106.282 5.71036C106.075 5.1797 105.879 4.91437 105.694 4.91437C105.44 4.91437 105.313 5.15663 105.313 5.64114L105.417 24.5026H100.849V3.18396C100.849 1.06132 102.153 0 104.76 0C106.006 0 106.928 0.265329 107.528 0.795987C108.128 1.32665 108.624 2.09956 109.016 3.11474L115.281 19.2768C115.557 19.8767 115.777 20.1766 115.938 20.1766C116.1 20.1766 116.319 19.8767 116.596 19.2768L122.86 3.11474C123.252 2.09956 123.748 1.32665 124.348 0.795987C124.948 0.265329 125.871 0 127.117 0C129.724 0 131.027 1.06132 131.027 3.18396V24.5026H126.459L126.597 5.64114C126.597 5.15663 126.459 4.91437 126.182 4.91437C125.998 4.91437 125.801 5.1797 125.594 5.71036Z" fill="#1F2124"/>
<path d="M151.245 24.5026H141.07C139.64 24.5026 138.451 24.3065 137.506 23.9143C136.583 23.5221 135.879 22.9107 135.394 22.0801C134.91 21.2264 134.575 20.2804 134.391 19.2422C134.229 18.2039 134.149 16.8888 134.149 15.2968C134.149 11.7437 134.818 9.29808 136.156 7.95989C137.517 6.62171 139.801 5.95262 143.008 5.95262C145.869 5.95262 148.05 6.48328 149.549 7.5446C151.072 8.58284 151.833 10.4748 151.833 13.2203C151.833 15.5276 150.887 16.6812 148.995 16.6812H138.336C138.336 18.2731 138.59 19.4614 139.098 20.2458C139.628 21.0072 140.689 21.3879 142.281 21.3879H151.245V24.5026ZM138.336 13.5664H146.746C147.346 13.5664 147.646 13.2088 147.646 12.4936C147.646 11.363 147.196 10.5094 146.296 9.93256C145.419 9.35576 144.323 9.06736 143.008 9.06736C141.301 9.06736 140.09 9.42498 139.374 10.1402C138.682 10.8324 138.336 11.9744 138.336 13.5664Z" fill="#1F2124"/>
<path d="M55.0667 30.2367C55.5267 30.6767 55.7567 31.2267 55.7567 31.8867C55.7567 32.5467 55.5267 33.1 55.0667 33.5467C54.6067 33.9867 54.0167 34.2067 53.2967 34.2067H52.2067V36.6667H51.0367V29.5667H53.2967C54.0167 29.5667 54.6067 29.79 55.0667 30.2367ZM54.2467 32.7667C54.4867 32.5334 54.6067 32.24 54.6067 31.8867C54.6067 31.5334 54.4867 31.2434 54.2467 31.0167C54.0134 30.7834 53.6934 30.6667 53.2867 30.6667H52.2067V33.1067H53.2867C53.6934 33.1067 54.0134 32.9934 54.2467 32.7667Z" fill="#1F2124"/>
<path d="M60.7299 36.0167C60.2299 36.5167 59.6099 36.7667 58.8699 36.7667C58.1299 36.7667 57.5065 36.5167 56.9999 36.0167C56.4999 35.51 56.2499 34.8934 56.2499 34.1667C56.2499 33.44 56.4999 32.8267 56.9999 32.3267C57.5065 31.82 58.1299 31.5667 58.8699 31.5667C59.6099 31.5667 60.2299 31.82 60.7299 32.3267C61.2365 32.8267 61.4899 33.44 61.4899 34.1667C61.4899 34.8934 61.2365 35.51 60.7299 36.0167ZM58.8699 35.7467C59.3032 35.7467 59.6599 35.5967 59.9399 35.2967C60.2265 34.99 60.3699 34.6134 60.3699 34.1667C60.3699 33.72 60.2265 33.3467 59.9399 33.0467C59.6599 32.74 59.3032 32.5867 58.8699 32.5867C58.4299 32.5867 58.0665 32.74 57.7799 33.0467C57.4999 33.3467 57.3599 33.72 57.3599 34.1667C57.3599 34.6134 57.4999 34.99 57.7799 35.2967C58.0665 35.5967 58.4299 35.7467 58.8699 35.7467Z" fill="#1F2124"/>
<path d="M66.8171 36.6667L65.7171 33.4367L64.6271 36.6667H63.5871L61.9071 31.6667H63.0671L64.1471 35.1167L65.2971 31.6667H66.1371L67.2671 35.1167L68.3671 31.6667H69.5371L67.8571 36.6667H66.8171Z" fill="#1F2124"/>
<path d="M72.5808 36.7667C71.8208 36.7667 71.1941 36.5234 70.7008 36.0367C70.2141 35.55 69.9708 34.9267 69.9708 34.1667C69.9708 33.4267 70.2175 32.81 70.7108 32.3167C71.2041 31.8167 71.8275 31.5667 72.5808 31.5667C73.2741 31.5667 73.8475 31.7867 74.3008 32.2267C74.7608 32.6667 74.9908 33.2734 74.9908 34.0467C74.9908 34.18 74.9875 34.3 74.9808 34.4067H71.0508C71.0775 34.8134 71.2341 35.1434 71.5208 35.3967C71.8075 35.6434 72.1641 35.7667 72.5908 35.7667C73.2308 35.7667 73.7075 35.5134 74.0208 35.0067L74.8608 35.6067C74.3808 36.38 73.6208 36.7667 72.5808 36.7667ZM71.1008 33.6067H73.8808C73.8208 33.26 73.6641 32.99 73.4108 32.7967C73.1641 32.5967 72.8741 32.4967 72.5408 32.4967C72.1941 32.4967 71.8841 32.5934 71.6108 32.7867C71.3441 32.98 71.1741 33.2534 71.1008 33.6067Z" fill="#1F2124"/>
<path d="M76.1216 36.6667V31.6667H77.2216V32.5567C77.3149 32.2767 77.4849 32.05 77.7316 31.8767C77.9849 31.7034 78.2549 31.6167 78.5416 31.6167C78.7149 31.6167 78.8583 31.63 78.9716 31.6567V32.7867C78.8116 32.7267 78.6283 32.6967 78.4216 32.6967C78.0883 32.6967 77.8049 32.8334 77.5716 33.1067C77.3383 33.3734 77.2216 33.7467 77.2216 34.2267V36.6667H76.1216Z" fill="#1F2124"/>
<path d="M82.0046 36.7667C81.2446 36.7667 80.618 36.5234 80.1246 36.0367C79.638 35.55 79.3946 34.9267 79.3946 34.1667C79.3946 33.4267 79.6413 32.81 80.1346 32.3167C80.628 31.8167 81.2513 31.5667 82.0046 31.5667C82.698 31.5667 83.2713 31.7867 83.7246 32.2267C84.1846 32.6667 84.4146 33.2734 84.4146 34.0467C84.4146 34.18 84.4113 34.3 84.4046 34.4067H80.4746C80.5013 34.8134 80.658 35.1434 80.9446 35.3967C81.2313 35.6434 81.588 35.7667 82.0146 35.7667C82.6546 35.7667 83.1313 35.5134 83.4446 35.0067L84.2846 35.6067C83.8046 36.38 83.0446 36.7667 82.0046 36.7667ZM80.5246 33.6067H83.3046C83.2446 33.26 83.088 32.99 82.8346 32.7967C82.588 32.5967 82.298 32.4967 81.9646 32.4967C81.618 32.4967 81.308 32.5934 81.0346 32.7867C80.768 32.98 80.598 33.2534 80.5246 33.6067Z" fill="#1F2124"/>
<path d="M87.5954 36.7667C86.9154 36.7667 86.3421 36.5134 85.8754 36.0067C85.4154 35.5 85.1854 34.8867 85.1854 34.1667C85.1854 33.4467 85.4154 32.8334 85.8754 32.3267C86.3421 31.82 86.9154 31.5667 87.5954 31.5667C87.9354 31.5667 88.2487 31.6434 88.5354 31.7967C88.8221 31.9434 89.0421 32.1234 89.1954 32.3367V29.1667H90.2954V36.6667H89.1954V35.9967C89.0421 36.21 88.8221 36.3934 88.5354 36.5467C88.2487 36.6934 87.9354 36.7667 87.5954 36.7667ZM86.7254 35.3067C87.0054 35.6134 87.3621 35.7667 87.7954 35.7667C88.2287 35.7667 88.5854 35.6134 88.8654 35.3067C89.1454 35 89.2854 34.62 89.2854 34.1667C89.2854 33.7134 89.1454 33.3334 88.8654 33.0267C88.5854 32.72 88.2287 32.5667 87.7954 32.5667C87.3621 32.5667 87.0054 32.72 86.7254 33.0267C86.4454 33.3334 86.3054 33.7134 86.3054 34.1667C86.3054 34.62 86.4454 35 86.7254 35.3067Z" fill="#1F2124"/>
<path d="M96.8492 36.7667C96.5092 36.7667 96.1925 36.6934 95.8992 36.5467C95.6125 36.3934 95.3925 36.21 95.2392 35.9967V36.6667H94.1392V29.1667H95.2392V32.3367C95.3925 32.1234 95.6125 31.9434 95.8992 31.7967C96.1925 31.6434 96.5092 31.5667 96.8492 31.5667C97.5292 31.5667 98.0992 31.82 98.5592 32.3267C99.0258 32.8334 99.2592 33.4467 99.2592 34.1667C99.2592 34.8867 99.0258 35.5 98.5592 36.0067C98.0992 36.5134 97.5292 36.7667 96.8492 36.7667ZM96.6492 35.7667C97.0825 35.7667 97.4392 35.6134 97.7192 35.3067C97.9992 35 98.1392 34.62 98.1392 34.1667C98.1392 33.7134 97.9992 33.3334 97.7192 33.0267C97.4392 32.72 97.0825 32.5667 96.6492 32.5667C96.2092 32.5667 95.8492 32.72 95.5692 33.0267C95.2892 33.3334 95.1492 33.7134 95.1492 34.1667C95.1492 34.62 95.2892 35 95.5692 35.3067C95.8492 35.6134 96.2092 35.7667 96.6492 35.7667Z" fill="#1F2124"/>
<path d="M101.862 38.7567H100.652L101.722 36.3967L99.5722 31.6667H100.782L102.312 35.2067L103.852 31.6667H105.072L101.862 38.7567Z" fill="#1F2124"/>
<path d="M107.967 36.6667V31.6667H109.067V32.5567C109.161 32.2767 109.331 32.05 109.577 31.8767C109.831 31.7034 110.101 31.6167 110.387 31.6167C110.561 31.6167 110.704 31.63 110.817 31.6567V32.7867C110.657 32.7267 110.474 32.6967 110.267 32.6967C109.934 32.6967 109.651 32.8334 109.417 33.1067C109.184 33.3734 109.067 33.7467 109.067 34.2267V36.6667H107.967Z" fill="#1F2124"/>
<path d="M113.65 36.7667C112.97 36.7667 112.397 36.5134 111.93 36.0067C111.47 35.5 111.24 34.8867 111.24 34.1667C111.24 33.4467 111.47 32.8334 111.93 32.3267C112.397 31.82 112.97 31.5667 113.65 31.5667C113.99 31.5667 114.303 31.6434 114.59 31.7967C114.877 31.9434 115.097 32.1234 115.25 32.3367V31.6667H116.35V36.6667H115.25V35.9967C115.097 36.21 114.877 36.3934 114.59 36.5467C114.303 36.6934 113.99 36.7667 113.65 36.7667ZM112.78 35.3067C113.06 35.6134 113.417 35.7667 113.85 35.7667C114.283 35.7667 114.64 35.6134 114.92 35.3067C115.2 35 115.34 34.62 115.34 34.1667C115.34 33.7134 115.2 33.3334 114.92 33.0267C114.64 32.72 114.283 32.5667 113.85 32.5667C113.417 32.5667 113.06 32.72 112.78 33.0267C112.5 33.3334 112.36 33.7134 112.36 34.1667C112.36 34.62 112.5 35 112.78 35.3067Z" fill="#1F2124"/>
<path d="M117.84 36.6667V31.6667H118.94V32.5567C119.034 32.2767 119.204 32.05 119.45 31.8767C119.704 31.7034 119.974 31.6167 120.26 31.6167C120.434 31.6167 120.577 31.63 120.69 31.6567V32.7867C120.53 32.7267 120.347 32.6967 120.14 32.6967C119.807 32.6967 119.524 32.8334 119.29 33.1067C119.057 33.3734 118.94 33.7467 118.94 34.2267V36.6667H117.84Z" fill="#1F2124"/>
<path d="M122.189 30.5767C121.989 30.5767 121.816 30.5067 121.669 30.3667C121.522 30.22 121.449 30.0434 121.449 29.8367C121.449 29.6367 121.522 29.4667 121.669 29.3267C121.816 29.18 121.989 29.1067 122.189 29.1067C122.396 29.1067 122.569 29.18 122.709 29.3267C122.849 29.4667 122.919 29.6367 122.919 29.8367C122.919 30.0434 122.849 30.22 122.709 30.3667C122.569 30.5067 122.396 30.5767 122.189 30.5767ZM121.639 36.6667V31.6667H122.739V36.6667H121.639Z" fill="#1F2124"/>
<path d="M130.587 36.6667V33.8567C130.587 33.45 130.511 33.1334 130.357 32.9067C130.211 32.68 129.991 32.5667 129.697 32.5667C129.344 32.5667 129.061 32.7034 128.847 32.9767C128.634 33.25 128.521 33.6334 128.507 34.1267V36.6667H127.407V33.8567C127.407 33.45 127.331 33.1334 127.177 32.9067C127.031 32.68 126.811 32.5667 126.517 32.5667C126.151 32.5667 125.857 32.71 125.637 32.9967C125.424 33.2834 125.317 33.6867 125.317 34.2067V36.6667H124.217V31.6667H125.317V32.3467C125.624 31.8267 126.097 31.5667 126.737 31.5667C127.491 31.5667 128.007 31.8967 128.287 32.5567C128.427 32.2434 128.641 32 128.927 31.8267C129.221 31.6534 129.541 31.5667 129.887 31.5667C130.447 31.5667 130.887 31.7567 131.207 32.1367C131.527 32.5167 131.687 33.03 131.687 33.6767V36.6667H130.587Z" fill="#1F2124"/>
<path d="M137.214 36.0167C136.714 36.5167 136.094 36.7667 135.354 36.7667C134.614 36.7667 133.991 36.5167 133.484 36.0167C132.984 35.51 132.734 34.8934 132.734 34.1667C132.734 33.44 132.984 32.8267 133.484 32.3267C133.991 31.82 134.614 31.5667 135.354 31.5667C136.094 31.5667 136.714 31.82 137.214 32.3267C137.721 32.8267 137.974 33.44 137.974 34.1667C137.974 34.8934 137.721 35.51 137.214 36.0167ZM135.354 35.7467C135.788 35.7467 136.144 35.5967 136.424 35.2967C136.711 34.99 136.854 34.6134 136.854 34.1667C136.854 33.72 136.711 33.3467 136.424 33.0467C136.144 32.74 135.788 32.5867 135.354 32.5867C134.914 32.5867 134.551 32.74 134.264 33.0467C133.984 33.3467 133.844 33.72 133.844 34.1667C133.844 34.6134 133.984 34.99 134.264 35.2967C134.551 35.5967 134.914 35.7467 135.354 35.7467Z" fill="#1F2124"/>
</svg>
