<svg width="103" height="27" viewBox="0 0 103 27" fill="none" xmlns="http://www.w3.org/2000/svg">
<path fill-rule="evenodd" clip-rule="evenodd" d="M-0.000976562 26.8926V14.5133C-0.000976562 11.8873 0.611943 9.98022 1.83764 8.79229C3.06334 7.60435 4.92507 7.01045 7.42273 7.01045H12.4904V10.3867H8.46343C6.8677 10.3867 5.73443 10.8117 5.06376 11.662C4.3931 12.5123 4.05783 13.8503 4.05783 15.6759V26.8926H-0.000976562ZM14.9394 26.8926C11.8868 26.8926 10.3603 24.8294 10.3603 20.7029C10.3603 18.7772 10.7418 17.2641 11.505 16.1637C12.2682 15.0633 13.4131 14.5133 14.9394 14.5133H23.2648V13.2377C23.2648 11.337 22.4091 10.3867 20.6978 10.3867H15.3335V7.01045H22.1548C23.8431 7.01045 25.1265 7.54824 26.0053 8.62364C26.8841 9.69904 27.3236 11.1119 27.3236 12.8625V23.5163C27.3236 25.7672 26.2828 26.8926 24.2015 26.8926H14.9394ZM30.1334 26.8926V14.5133C30.1334 11.8873 30.7463 9.98022 31.972 8.79229C33.1977 7.60435 35.0591 7.01045 37.5568 7.01045H40.8147V10.3867H38.5975C37.0018 10.3867 35.8688 10.8117 35.1981 11.662C34.5274 12.5123 34.1919 13.8503 34.1919 15.6759V26.8926H30.1334ZM43.7032 26.8926V7.01045H47.762V26.8926H43.7032ZM16.5002 23.5163H22.2241C22.9179 23.5163 23.2648 23.1412 23.2648 22.3909V17.8892H16.5002C15.2051 17.8892 14.5576 18.8272 14.5576 20.7029C14.5576 22.5786 15.2051 23.5163 16.5002 23.5163ZM43.7032 4.38447V0.333008H47.762V4.38447H43.7032Z" fill="#1F2124"/>
<path fill-rule="evenodd" clip-rule="evenodd" d="M84.1771 9.41706C85.7986 7.98536 88.4002 7.26953 91.982 7.26953C95.5638 7.26953 98.1654 7.98536 99.7869 9.41706C101.408 10.8487 102.219 13.4088 102.219 17.0972C102.219 20.8341 101.414 23.4184 99.8051 24.8501C98.1957 26.2818 95.588 26.9976 91.982 26.9976C88.376 26.9976 85.7684 26.2818 84.159 24.8501C82.5496 23.4184 81.7449 20.8341 81.7449 17.0972C81.7449 13.4088 82.5556 10.8487 84.1771 9.41706ZM86.1374 17.0972C86.1374 19.4995 86.5731 21.2041 87.4443 22.2112C88.3156 23.2182 89.8281 23.7217 91.982 23.7217C94.1359 23.7217 95.6485 23.2182 96.5198 22.2112C97.391 21.2041 97.8266 19.4995 97.8266 17.0972C97.8266 14.7191 97.391 13.0327 96.5198 12.0378C95.6485 11.0429 94.1359 10.5454 91.982 10.5454C89.8281 10.5454 88.3156 11.0429 87.4443 12.0378C86.5731 13.0327 86.1374 14.7191 86.1374 17.0972ZM51.5781 26.7792V10.7638C51.5781 8.57987 52.6672 7.48792 54.8453 7.48792H71.5078C73.8795 7.48792 75.7188 7.98537 77.0257 8.98027C78.3326 9.97517 78.986 11.6738 78.986 14.0761V26.7792H74.7387V15.2044C74.7387 13.7 74.4241 12.5837 73.7948 11.8558C73.1656 11.1278 72.137 10.7638 70.7092 10.7638H67.4057V26.7792H63.1584V10.7638H56.9145C56.1884 10.7638 55.8254 11.1278 55.8254 11.8558V26.7792H51.5781Z" fill="#1F2124"/>
</svg>
