<svg width="40" height="40" viewBox="0 0 40 40" fill="none" xmlns="http://www.w3.org/2000/svg">
<g id="Shield 1">
<g id="Group 44032">
<g id="Group 44031">
<path id="Logo" fill-rule="evenodd" clip-rule="evenodd" d="M5.99902 29.8924V17.5131C5.99902 14.8871 6.61194 12.98 7.83764 11.7921C9.06334 10.6042 10.9251 10.0103 13.4227 10.0103H18.4904V13.3865H14.4634C12.8677 13.3865 11.7344 13.8115 11.0638 14.6618C10.3931 15.5121 10.0578 16.8501 10.0578 18.6757V29.8924H5.99902ZM20.9394 29.8924C17.8868 29.8924 16.3603 27.8292 16.3603 23.7027C16.3603 21.777 16.7418 20.2639 17.505 19.1635C18.2682 18.0631 19.4131 17.5131 20.9394 17.5131H29.2648V16.2375C29.2648 14.3368 28.4091 13.3865 26.6978 13.3865H21.3335V10.0103H28.1548C29.8431 10.0103 31.1265 10.548 32.0053 11.6234C32.8841 12.6988 33.3236 14.1117 33.3236 15.8623V26.5161C33.3236 28.767 32.2828 29.8924 30.2015 29.8924H20.9394ZM22.5002 26.5161H28.2241C28.9179 26.5161 29.2648 26.141 29.2648 25.3907V20.889H22.5002C21.2051 20.889 20.5576 21.8271 20.5576 23.7027C20.5576 25.5784 21.2051 26.5161 22.5002 26.5161Z" fill="#1F2124"/>
</g>
</g>
</g>
</svg>
