<?xml version="1.0" standalone="no"?>
<!DOCTYPE svg PUBLIC "-//W3C//DTD SVG 20010904//EN"
 "http://www.w3.org/TR/2001/REC-SVG-20010904/DTD/svg10.dtd">
<svg version="1.0" xmlns="http://www.w3.org/2000/svg"
 width="700.000000pt" height="700.000000pt" viewBox="0 0 700.000000 700.000000"
 preserveAspectRatio="xMidYMid meet">
<metadata>
Created by potrace 1.14, written by Peter Selinger 2001-2017
</metadata>
<g transform="translate(0.000000,700.000000) scale(0.100000,-0.100000)"
fill="#000000" stroke="none">
<path d="M2178 5245 c-2 -2 -32 -6 -68 -9 -220 -23 -417 -82 -569 -171 -253
-149 -414 -417 -467 -782 -3 -26 -9 -57 -12 -68 -3 -11 -8 -566 -9 -1232 l-4
-1213 356 0 355 0 1 1013 c0 1197 -1 1140 35 1322 59 293 208 458 474 526 79
20 114 21 520 25 239 1 437 3 440 3 4 1 5 538 1 579 -1 11 -99 13 -526 11
-288 -1 -526 -3 -527 -4z"/>
<path d="M3734 4955 c0 -202 3 -295 10 -296 6 0 229 -1 496 -1 519 -1 578 -6
668 -51 117 -59 190 -181 206 -343 6 -56 9 -185 7 -284 l-1 -45 -747 0 c-412
0 -779 -3 -818 -7 -353 -39 -567 -269 -660 -708 -20 -94 -29 -210 -29 -370 0
-125 8 -273 18 -320 3 -13 8 -41 11 -61 3 -20 10 -50 15 -68 5 -17 9 -35 9
-39 3 -24 37 -126 61 -178 89 -196 239 -326 445 -386 l80 -23 945 0 c520 0
963 3 985 7 195 34 319 156 374 368 19 72 20 118 19 1155 0 844 -3 1095 -13
1150 -7 39 -16 86 -20 105 -3 19 -18 69 -32 110 -93 272 -277 460 -523 534
-133 41 -193 44 -861 45 l-645 1 0 -295z m1381 -1617 c13 -12 7 -812 -5 -859
-16 -60 -65 -106 -121 -114 -24 -3 -291 -5 -594 -3 l-550 3 -48 24 c-109 53
-169 157 -191 330 -7 55 -8 227 -2 261 3 14 7 41 10 60 7 49 32 117 61 166 45
77 115 121 210 133 69 8 1222 8 1230 -1z"/>
</g>
</svg>
