<svg width="110" height="32" viewBox="0 0 110 32" fill="none" xmlns="http://www.w3.org/2000/svg">
<path fill-rule="evenodd" clip-rule="evenodd" d="M2.30664 14.7958C2.30662 21.9627 7.36528 28.1331 14.393 29.5387C15.4571 29.7515 16.5528 29.7515 17.6169 29.5385H17.6172C24.6447 28.1329 29.7031 21.9625 29.7033 14.7957V9.9119C29.7033 5.70894 26.2959 2.30176 22.093 2.30176H9.91679C5.71382 2.30176 2.30664 5.70894 2.30664 9.9119V14.7958ZM12.2886 14.4779C12.2886 14.0083 11.9079 13.6276 11.4382 13.6276C10.9686 13.6276 10.5879 14.0083 10.5879 14.4779V19.044C10.5879 19.5136 10.9686 19.8943 11.4382 19.8943C11.9079 19.8943 12.2886 19.5136 12.2886 19.044V14.4779ZM16.0047 13.501C16.4743 13.501 16.855 13.8817 16.855 14.3513V19.0443C16.855 19.5139 16.4743 19.8946 16.0047 19.8946C15.535 19.8946 15.1543 19.5139 15.1543 19.0443V14.3513C15.1543 13.8817 15.535 13.501 16.0047 13.501ZM16.0035 9.06152L16.0003 9.06153C15.007 9.06527 14.0342 9.34412 13.1898 9.86711C12.7906 10.1144 12.6674 10.6385 12.9147 11.0378C13.162 11.4371 13.6861 11.5602 14.0853 11.313C14.6622 10.9557 15.3266 10.7651 16.0051 10.7622C18.0565 10.7631 19.7192 12.4263 19.7192 14.478V19.0441C19.7192 19.5137 20.0999 19.8944 20.5695 19.8944C21.0391 19.8944 21.4199 19.5137 21.4199 19.0441V14.478C21.4199 11.4866 18.9949 9.06152 16.0035 9.06152Z" fill="#202020"/>
<path d="M39.9961 18.7066V10.8832C39.9961 9.22369 40.4149 8.02253 41.2526 7.2797C42.0902 6.52107 43.3625 6.14176 45.0694 6.14176H46.9423V8.27541H45.7807C44.6901 8.27541 43.9157 8.54409 43.4573 9.08145C42.999 9.61882 42.7698 10.4644 42.7698 11.6181V18.7066H39.9961Z" fill="#202020"/>
<path d="M48.1119 6.14176H55.2478C56.4015 6.14176 57.2787 6.48156 57.8793 7.16117C58.4799 7.84077 58.7802 8.73375 58.7802 9.84008V16.5729C58.7802 17.9954 58.069 18.7066 56.6465 18.7066H50.3167C48.2305 18.7066 47.1873 17.4027 47.1873 14.7949C47.1873 13.5779 47.4481 12.6217 47.9697 11.9263C48.4912 11.2309 49.2736 10.8832 50.3167 10.8832H56.0064V10.0772C56.0064 8.87599 55.4216 8.27541 54.2521 8.27541H48.1119V6.14176ZM56.0064 13.0168H51.3835C50.4985 13.0168 50.0559 13.6095 50.0559 14.7949C50.0559 15.9802 50.4985 16.5729 51.3835 16.5729H55.2952C55.7694 16.5729 56.0064 16.3359 56.0064 15.8617V13.0168Z" fill="#202020"/>
<path d="M60.9714 18.7066V10.8832C60.9714 9.22369 61.3902 8.02253 62.2279 7.2797C63.0656 6.52107 64.3378 6.14176 66.0448 6.14176H67.9176V8.27541H66.756C65.6654 8.27541 64.891 8.54409 64.4327 9.08145C63.9743 9.61882 63.7452 10.4644 63.7452 11.6181V18.7066H60.9714Z" fill="#202020"/>
<path d="M69.005 18.7066V6.14176H71.7788V18.7066H69.005ZM71.7788 4.48225H69.005V1.92188H71.7788V4.48225Z" fill="#202020"/>
<path d="M91.242 5.83356L86.9984 16.9048C86.7139 17.616 86.4136 18.1297 86.0975 18.4458C85.7815 18.7461 85.2915 18.8962 84.6277 18.8962C83.9639 18.8962 83.4739 18.7461 83.1579 18.4458C82.8418 18.1297 82.5415 17.616 82.257 16.9048L78.0134 5.83356C77.8711 5.47005 77.7368 5.2883 77.6104 5.2883C77.4365 5.2883 77.3496 5.45425 77.3496 5.78615L77.4207 18.7066H74.2914V4.10294C74.2914 2.6489 75.1843 1.92188 76.9703 1.92188C77.8237 1.92188 78.4559 2.10363 78.8668 2.46714C79.2778 2.83065 79.6176 3.36011 79.8863 4.05552L84.1773 15.1268C84.3669 15.5377 84.5171 15.7432 84.6277 15.7432C84.7383 15.7432 84.8885 15.5377 85.0781 15.1268L89.3691 4.05552C89.6378 3.36011 89.9776 2.83065 90.3885 2.46714C90.7995 2.10363 91.4317 1.92188 92.2851 1.92188C94.0711 1.92188 94.964 2.6489 94.964 4.10294V18.7066H91.8347L91.9295 5.78615C91.9295 5.45425 91.8347 5.2883 91.645 5.2883C91.5186 5.2883 91.3843 5.47005 91.242 5.83356Z" fill="#202020"/>
<path d="M108.813 18.7066H101.844C100.864 18.7066 100.05 18.5722 99.4017 18.3036C98.7695 18.0349 98.2875 17.616 97.9556 17.0471C97.6237 16.4623 97.3945 15.8143 97.2681 15.1031C97.1574 14.3919 97.1021 13.491 97.1021 12.4005C97.1021 9.96652 97.5605 8.29121 98.4771 7.37453C99.4096 6.45785 100.974 5.99951 103.171 5.99951C105.131 5.99951 106.625 6.36302 107.652 7.09005C108.695 7.80126 109.217 9.09726 109.217 10.978C109.217 12.5585 108.569 13.3487 107.273 13.3487H99.9707C99.9707 14.4393 100.145 15.2532 100.492 15.7906C100.856 16.3122 101.583 16.5729 102.673 16.5729H108.813V18.7066ZM99.9707 11.2151H105.732C106.142 11.2151 106.348 10.9701 106.348 10.4802C106.348 9.70574 106.04 9.12096 105.423 8.72584C104.823 8.33072 104.072 8.13316 103.171 8.13316C102.002 8.13316 101.172 8.37814 100.682 8.86809C100.208 9.34223 99.9707 10.1246 99.9707 11.2151Z" fill="#202020"/>
<path d="M43.4232 23.2619C43.7912 23.6139 43.9752 24.0539 43.9752 24.5819C43.9752 25.1099 43.7912 25.5526 43.4232 25.9099C43.0552 26.2619 42.5832 26.4379 42.0072 26.4379H41.1352V28.4059H40.1992V22.7259H42.0072C42.5832 22.7259 43.0552 22.9046 43.4232 23.2619ZM42.7672 25.2859C42.9592 25.0992 43.0552 24.8646 43.0552 24.5819C43.0552 24.2992 42.9592 24.0672 42.7672 23.8859C42.5806 23.6992 42.3246 23.6059 41.9992 23.6059H41.1352V25.5579H41.9992C42.3246 25.5579 42.5806 25.4672 42.7672 25.2859Z" fill="#202020" fill-opacity="0.56"/>
<path d="M47.9537 27.8859C47.5537 28.2859 47.0577 28.4859 46.4657 28.4859C45.8737 28.4859 45.3751 28.2859 44.9697 27.8859C44.5697 27.4806 44.3697 26.9872 44.3697 26.4059C44.3697 25.8246 44.5697 25.3339 44.9697 24.9339C45.3751 24.5286 45.8737 24.3259 46.4657 24.3259C47.0577 24.3259 47.5537 24.5286 47.9537 24.9339C48.3591 25.3339 48.5617 25.8246 48.5617 26.4059C48.5617 26.9872 48.3591 27.4806 47.9537 27.8859ZM46.4657 27.6699C46.8124 27.6699 47.0977 27.5499 47.3217 27.3099C47.5511 27.0646 47.6657 26.7632 47.6657 26.4059C47.6657 26.0486 47.5511 25.7499 47.3217 25.5099C47.0977 25.2646 46.8124 25.1419 46.4657 25.1419C46.1137 25.1419 45.8231 25.2646 45.5937 25.5099C45.3697 25.7499 45.2577 26.0486 45.2577 26.4059C45.2577 26.7632 45.3697 27.0646 45.5937 27.3099C45.8231 27.5499 46.1137 27.6699 46.4657 27.6699Z" fill="#202020" fill-opacity="0.56"/>
<path d="M52.8235 28.4059L51.9435 25.8219L51.0715 28.4059H50.2395L48.8955 24.4059H49.8235L50.6875 27.1659L51.6075 24.4059H52.2795L53.1835 27.1659L54.0635 24.4059H54.9995L53.6555 28.4059H52.8235Z" fill="#202020" fill-opacity="0.56"/>
<path d="M57.4345 28.4859C56.8265 28.4859 56.3251 28.2912 55.9305 27.9019C55.5411 27.5126 55.3465 27.0139 55.3465 26.4059C55.3465 25.8139 55.5438 25.3206 55.9385 24.9259C56.3331 24.5259 56.8318 24.3259 57.4345 24.3259C57.9891 24.3259 58.4478 24.5019 58.8105 24.8539C59.1785 25.2059 59.3625 25.6912 59.3625 26.3099C59.3625 26.4166 59.3598 26.5126 59.3545 26.5979H56.2105C56.2318 26.9232 56.3571 27.1872 56.5865 27.3899C56.8158 27.5872 57.1011 27.6859 57.4425 27.6859C57.9545 27.6859 58.3358 27.4832 58.5865 27.0779L59.2585 27.5579C58.8745 28.1766 58.2665 28.4859 57.4345 28.4859ZM56.2505 25.9579H58.4745C58.4265 25.6806 58.3011 25.4646 58.0985 25.3099C57.9011 25.1499 57.6691 25.0699 57.4025 25.0699C57.1251 25.0699 56.8771 25.1472 56.6585 25.3019C56.4451 25.4566 56.3091 25.6752 56.2505 25.9579Z" fill="#202020" fill-opacity="0.56"/>
<path d="M60.2671 28.4059V24.4059H61.1471V25.1179C61.2218 24.8939 61.3578 24.7126 61.5551 24.5739C61.7578 24.4352 61.9738 24.3659 62.2031 24.3659C62.3418 24.3659 62.4564 24.3766 62.5471 24.3979V25.3019C62.4191 25.2539 62.2724 25.2299 62.1071 25.2299C61.8404 25.2299 61.6138 25.3392 61.4271 25.5579C61.2404 25.7712 61.1471 26.0699 61.1471 26.4539V28.4059H60.2671Z" fill="#202020" fill-opacity="0.56"/>
<path d="M64.9735 28.4859C64.3655 28.4859 63.8642 28.2912 63.4695 27.9019C63.0802 27.5126 62.8855 27.0139 62.8855 26.4059C62.8855 25.8139 63.0829 25.3206 63.4775 24.9259C63.8722 24.5259 64.3709 24.3259 64.9735 24.3259C65.5282 24.3259 65.9869 24.5019 66.3495 24.8539C66.7175 25.2059 66.9015 25.6912 66.9015 26.3099C66.9015 26.4166 66.8989 26.5126 66.8935 26.5979H63.7495C63.7709 26.9232 63.8962 27.1872 64.1255 27.3899C64.3549 27.5872 64.6402 27.6859 64.9815 27.6859C65.4935 27.6859 65.8749 27.4832 66.1255 27.0779L66.7975 27.5579C66.4135 28.1766 65.8055 28.4859 64.9735 28.4859ZM63.7895 25.9579H66.0135C65.9655 25.6806 65.8402 25.4646 65.6375 25.3099C65.4402 25.1499 65.2082 25.0699 64.9415 25.0699C64.6642 25.0699 64.4162 25.1472 64.1975 25.3019C63.9842 25.4566 63.8482 25.6752 63.7895 25.9579Z" fill="#202020" fill-opacity="0.56"/>
<path d="M69.4462 28.4859C68.9022 28.4859 68.4435 28.2832 68.0702 27.8779C67.7022 27.4726 67.5182 26.9819 67.5182 26.4059C67.5182 25.8299 67.7022 25.3392 68.0702 24.9339C68.4435 24.5286 68.9022 24.3259 69.4462 24.3259C69.7182 24.3259 69.9688 24.3872 70.1982 24.5099C70.4275 24.6272 70.6035 24.7712 70.7262 24.9419V22.4059H71.6062V28.4059H70.7262V27.8699C70.6035 28.0406 70.4275 28.1872 70.1982 28.3099C69.9688 28.4272 69.7182 28.4859 69.4462 28.4859ZM68.7502 27.3179C68.9742 27.5632 69.2595 27.6859 69.6062 27.6859C69.9528 27.6859 70.2382 27.5632 70.4622 27.3179C70.6862 27.0726 70.7982 26.7686 70.7982 26.4059C70.7982 26.0432 70.6862 25.7392 70.4622 25.4939C70.2382 25.2486 69.9528 25.1259 69.6062 25.1259C69.2595 25.1259 68.9742 25.2486 68.7502 25.4939C68.5262 25.7392 68.4142 26.0432 68.4142 26.4059C68.4142 26.7686 68.5262 27.0726 68.7502 27.3179Z" fill="#202020" fill-opacity="0.56"/>
<path d="M76.8492 28.4859C76.5772 28.4859 76.3238 28.4272 76.0892 28.3099C75.8598 28.1872 75.6838 28.0406 75.5612 27.8699V28.4059H74.6812V22.4059H75.5612V24.9419C75.6838 24.7712 75.8598 24.6272 76.0892 24.5099C76.3238 24.3872 76.5772 24.3259 76.8492 24.3259C77.3932 24.3259 77.8492 24.5286 78.2172 24.9339C78.5905 25.3392 78.7772 25.8299 78.7772 26.4059C78.7772 26.9819 78.5905 27.4726 78.2172 27.8779C77.8492 28.2832 77.3932 28.4859 76.8492 28.4859ZM76.6892 27.6859C77.0358 27.6859 77.3212 27.5632 77.5452 27.3179C77.7692 27.0726 77.8812 26.7686 77.8812 26.4059C77.8812 26.0432 77.7692 25.7392 77.5452 25.4939C77.3212 25.2486 77.0358 25.1259 76.6892 25.1259C76.3372 25.1259 76.0492 25.2486 75.8252 25.4939C75.6012 25.7392 75.4892 26.0432 75.4892 26.4059C75.4892 26.7686 75.6012 27.0726 75.8252 27.3179C76.0492 27.5632 76.3372 27.6859 76.6892 27.6859Z" fill="#202020" fill-opacity="0.56"/>
<path d="M80.8596 30.0779H79.8916L80.7476 28.1899L79.0276 24.4059H79.9956L81.2196 27.2379L82.4516 24.4059H83.4276L80.8596 30.0779Z" fill="#202020" fill-opacity="0.56"/>
<path d="M85.7437 28.4059V24.4059H86.6237V25.1179C86.6983 24.8939 86.8343 24.7126 87.0317 24.5739C87.2343 24.4352 87.4503 24.3659 87.6797 24.3659C87.8183 24.3659 87.933 24.3766 88.0237 24.3979V25.3019C87.8957 25.2539 87.749 25.2299 87.5837 25.2299C87.317 25.2299 87.0903 25.3392 86.9037 25.5579C86.717 25.7712 86.6237 26.0699 86.6237 26.4539V28.4059H85.7437Z" fill="#202020" fill-opacity="0.56"/>
<path d="M90.2899 28.4859C89.7459 28.4859 89.2872 28.2832 88.9139 27.8779C88.5459 27.4726 88.3619 26.9819 88.3619 26.4059C88.3619 25.8299 88.5459 25.3392 88.9139 24.9339C89.2872 24.5286 89.7459 24.3259 90.2899 24.3259C90.5619 24.3259 90.8126 24.3872 91.0419 24.5099C91.2712 24.6272 91.4472 24.7712 91.5699 24.9419V24.4059H92.4499V28.4059H91.5699V27.8699C91.4472 28.0406 91.2712 28.1872 91.0419 28.3099C90.8126 28.4272 90.5619 28.4859 90.2899 28.4859ZM89.5939 27.3179C89.8179 27.5632 90.1032 27.6859 90.4499 27.6859C90.7966 27.6859 91.0819 27.5632 91.3059 27.3179C91.5299 27.0726 91.6419 26.7686 91.6419 26.4059C91.6419 26.0432 91.5299 25.7392 91.3059 25.4939C91.0819 25.2486 90.7966 25.1259 90.4499 25.1259C90.1032 25.1259 89.8179 25.2486 89.5939 25.4939C89.3699 25.7392 89.2579 26.0432 89.2579 26.4059C89.2579 26.7686 89.3699 27.0726 89.5939 27.3179Z" fill="#202020" fill-opacity="0.56"/>
<path d="M93.6421 28.4059V24.4059H94.5221V25.1179C94.5968 24.8939 94.7328 24.7126 94.9301 24.5739C95.1328 24.4352 95.3488 24.3659 95.5781 24.3659C95.7168 24.3659 95.8314 24.3766 95.9221 24.3979V25.3019C95.7941 25.2539 95.6474 25.2299 95.4821 25.2299C95.2154 25.2299 94.9888 25.3392 94.8021 25.5579C94.6154 25.7712 94.5221 26.0699 94.5221 26.4539V28.4059H93.6421Z" fill="#202020" fill-opacity="0.56"/>
<path d="M97.1212 23.5339C96.9612 23.5339 96.8225 23.4779 96.7052 23.3659C96.5878 23.2486 96.5292 23.1072 96.5292 22.9419C96.5292 22.7819 96.5878 22.6459 96.7052 22.5339C96.8225 22.4166 96.9612 22.3579 97.1212 22.3579C97.2865 22.3579 97.4252 22.4166 97.5372 22.5339C97.6492 22.6459 97.7052 22.7819 97.7052 22.9419C97.7052 23.1072 97.6492 23.2486 97.5372 23.3659C97.4252 23.4779 97.2865 23.5339 97.1212 23.5339ZM96.6812 28.4059V24.4059H97.5612V28.4059H96.6812Z" fill="#202020" fill-opacity="0.56"/>
<path d="M103.84 28.4059V26.1579C103.84 25.8326 103.778 25.5792 103.656 25.3979C103.538 25.2166 103.362 25.1259 103.128 25.1259C102.845 25.1259 102.618 25.2352 102.448 25.4539C102.277 25.6726 102.186 25.9792 102.176 26.3739V28.4059H101.296V26.1579C101.296 25.8326 101.234 25.5792 101.112 25.3979C100.994 25.2166 100.818 25.1259 100.584 25.1259C100.29 25.1259 100.056 25.2406 99.8797 25.4699C99.709 25.6992 99.6237 26.0219 99.6237 26.4379V28.4059H98.7437V24.4059H99.6237V24.9499C99.869 24.5339 100.248 24.3259 100.76 24.3259C101.362 24.3259 101.776 24.5899 102 25.1179C102.112 24.8672 102.282 24.6726 102.512 24.5339C102.746 24.3952 103.002 24.3259 103.28 24.3259C103.728 24.3259 104.08 24.4779 104.336 24.7819C104.592 25.0859 104.72 25.4966 104.72 26.0139V28.4059H103.84Z" fill="#202020" fill-opacity="0.56"/>
<path d="M109.141 27.8859C108.741 28.2859 108.245 28.4859 107.653 28.4859C107.061 28.4859 106.563 28.2859 106.157 27.8859C105.757 27.4806 105.557 26.9872 105.557 26.4059C105.557 25.8246 105.757 25.3339 106.157 24.9339C106.563 24.5286 107.061 24.3259 107.653 24.3259C108.245 24.3259 108.741 24.5286 109.141 24.9339C109.547 25.3339 109.749 25.8246 109.749 26.4059C109.749 26.9872 109.547 27.4806 109.141 27.8859ZM107.653 27.6699C108 27.6699 108.285 27.5499 108.509 27.3099C108.739 27.0646 108.853 26.7632 108.853 26.4059C108.853 26.0486 108.739 25.7499 108.509 25.5099C108.285 25.2646 108 25.1419 107.653 25.1419C107.301 25.1419 107.011 25.2646 106.781 25.5099C106.557 25.7499 106.445 26.0486 106.445 26.4059C106.445 26.7632 106.557 27.0646 106.781 27.3099C107.011 27.5499 107.301 27.6699 107.653 27.6699Z" fill="#202020" fill-opacity="0.56"/>
</svg>
