<svg width="40" height="40" viewBox="0 0 40 40" fill="none" xmlns="http://www.w3.org/2000/svg">
  <path fill-rule="evenodd" clip-rule="evenodd"
        d="M2.89709 18.4945C2.89707 27.4531 9.22039 35.1661 18.005 36.9232C19.3351 37.1892 20.7048 37.1892 22.0349 36.9229H22.0353C30.8197 35.1659 37.1426 27.4529 37.1429 18.4944V12.3896C37.1429 7.13593 32.8837 2.87695 27.6301 2.87695H12.4098C7.15607 2.87695 2.89709 7.13593 2.89709 12.3896V18.4945ZM15.3752 18.0972C15.3752 17.5102 14.8993 17.0343 14.3122 17.0343C13.7252 17.0343 13.2493 17.5102 13.2493 18.0972V23.8048C13.2493 24.3919 13.7252 24.8678 14.3122 24.8678C14.8993 24.8678 15.3752 24.3919 15.3752 23.8048V18.0972ZM20.0202 16.876C20.6072 16.876 21.0831 17.3519 21.0831 17.9389V23.8051C21.0831 24.3921 20.6072 24.868 20.0202 24.868C19.4331 24.868 18.9572 24.3921 18.9572 23.8051V17.9389C18.9572 17.3519 19.4331 16.876 20.0202 16.876ZM20.0202 11.3271L20.0162 11.3272C18.7747 11.3318 17.5586 11.6804 16.5031 12.3341C16.0041 12.6433 15.8501 13.2984 16.1592 13.7975C16.4683 14.2966 17.1235 14.4506 17.6225 14.1414C18.3436 13.6949 19.1741 13.4566 20.0222 13.453C22.5865 13.4541 24.6648 15.5332 24.6648 18.0977V23.8053C24.6648 24.3924 25.1407 24.8683 25.7278 24.8683C26.3148 24.8683 26.7907 24.3924 26.7907 23.8053V18.0977C26.7907 14.3585 23.7595 11.3271 20.0202 11.3271Z"
        fill="#202020"/>
</svg>
