<svg width="256" height="256" viewBox="0 0 256 256" fill="none" xmlns="http://www.w3.org/2000/svg">
<circle cx="128" cy="128" r="128" fill="white"/>
<path fill-rule="evenodd" clip-rule="evenodd" d="M39.3913 120.208C39.3912 166.587 72.1274 206.518 117.606 215.614C124.492 216.992 131.583 216.992 138.469 215.613H138.471C183.949 206.517 216.683 166.586 216.684 120.207V88.6026C216.684 61.4038 194.634 39.3547 167.436 39.3547H88.6391C61.4403 39.3547 39.3913 61.4038 39.3913 88.6026V120.208ZM103.988 118.151C103.988 115.112 101.524 112.648 98.485 112.648C95.4458 112.648 92.9821 115.112 92.9821 118.151V147.699C92.9821 150.739 95.4458 153.202 98.485 153.202C101.524 153.202 103.988 150.739 103.988 147.699V118.151ZM128.036 111.829C131.075 111.829 133.539 114.292 133.539 117.332V147.701C133.539 150.74 131.075 153.204 128.036 153.204C124.997 153.204 122.533 150.74 122.533 147.701V117.332C122.533 114.292 124.997 111.829 128.036 111.829ZM128.028 83.0995L128.007 83.0995C121.58 83.1237 115.284 84.9282 109.82 88.3127C107.236 89.913 106.439 93.3048 108.039 95.8886C109.64 98.4723 113.032 99.2696 115.615 97.6693C119.348 95.3573 123.648 94.1238 128.039 94.1053C141.314 94.1109 152.074 104.874 152.074 118.151V147.7C152.074 150.739 154.537 153.203 157.576 153.203C160.616 153.203 163.079 150.739 163.079 147.7V118.151C163.079 98.7928 147.387 83.0995 128.028 83.0995Z" fill="#202020"/>
</svg>
