<svg width="20" height="20" viewBox="0 0 20 20" fill="none" xmlns="http://www.w3.org/2000/svg">
<path d="M16.875 5.62511H14.1344C14.1648 5.59933 14.1961 5.57433 14.2258 5.54699C14.4631 5.33619 14.6543 5.0787 14.7875 4.79062C14.9207 4.50255 14.9931 4.19008 15 3.87277C15.0103 3.52564 14.9495 3.18008 14.8213 2.85729C14.6932 2.53451 14.5005 2.24131 14.255 1.99571C14.0094 1.75011 13.7163 1.55728 13.3936 1.42907C13.0708 1.30085 12.7253 1.23996 12.3781 1.25011C12.0607 1.25695 11.7481 1.32924 11.4598 1.46246C11.1716 1.59568 10.914 1.78696 10.7031 2.02433C10.4113 2.36253 10.1741 2.74421 10 3.15558C9.82592 2.74421 9.58869 2.36253 9.29688 2.02433C9.08599 1.78696 8.82837 1.59568 8.54015 1.46246C8.25193 1.32924 7.93932 1.25695 7.62187 1.25011C7.27474 1.23996 6.9292 1.30085 6.60645 1.42907C6.2837 1.55728 5.99057 1.75011 5.74504 1.99571C5.49951 2.24131 5.30677 2.53451 5.17865 2.85729C5.05053 3.18008 4.98974 3.52564 5 3.87277C5.00694 4.19008 5.07929 4.50255 5.2125 4.79062C5.34572 5.0787 5.53695 5.33619 5.77422 5.54699C5.80391 5.57277 5.83516 5.59777 5.86563 5.62511H3.125C2.79348 5.62511 2.47554 5.75681 2.24112 5.99123C2.0067 6.22565 1.875 6.54359 1.875 6.87511V9.37511C1.875 9.70663 2.0067 10.0246 2.24112 10.259C2.47554 10.4934 2.79348 10.6251 3.125 10.6251V15.6251C3.125 15.9566 3.2567 16.2746 3.49112 16.509C3.72554 16.7434 4.04348 16.8751 4.375 16.8751H15.625C15.9565 16.8751 16.2745 16.7434 16.5089 16.509C16.7433 16.2746 16.875 15.9566 16.875 15.6251V10.6251C17.2065 10.6251 17.5245 10.4934 17.7589 10.259C17.9933 10.0246 18.125 9.70663 18.125 9.37511V6.87511C18.125 6.54359 17.9933 6.22565 17.7589 5.99123C17.5245 5.75681 17.2065 5.62511 16.875 5.62511ZM11.6406 2.85246C11.7396 2.74318 11.8601 2.65554 11.9945 2.59504C12.129 2.53454 12.2745 2.50249 12.4219 2.5009H12.4602C12.6329 2.50198 12.8038 2.53753 12.9626 2.60548C13.1215 2.67343 13.2652 2.77241 13.3854 2.89661C13.5055 3.02081 13.5996 3.16774 13.6622 3.32879C13.7248 3.48984 13.7547 3.66176 13.75 3.83449C13.7484 3.98191 13.7164 4.12741 13.6559 4.26185C13.5954 4.3963 13.5077 4.51678 13.3984 4.61574C12.657 5.27199 11.4266 5.50324 10.6641 5.58449C10.7578 4.75715 11.0156 3.5548 11.6406 2.85246ZM6.63359 2.88058C6.87574 2.63847 7.20367 2.50173 7.54609 2.50011H7.58438C7.7318 2.5017 7.87729 2.53376 8.01174 2.59425C8.14618 2.65475 8.26667 2.7424 8.36563 2.85168C9.02109 3.5923 9.25234 4.82043 9.33359 5.5798C8.57422 5.50168 7.34609 5.2673 6.60547 4.61183C6.49619 4.51287 6.40855 4.39239 6.34805 4.25795C6.28755 4.1235 6.2555 3.978 6.25391 3.83058C6.24906 3.65498 6.27994 3.48023 6.34467 3.31693C6.4094 3.15363 6.50663 3.00517 6.63047 2.88058H6.63359ZM3.125 6.87511H9.375V9.37511H3.125V6.87511ZM4.375 10.6251H9.375V15.6251H4.375V10.6251ZM15.625 15.6251H10.625V10.6251H15.625V15.6251ZM16.875 9.37511H10.625V6.87511H16.875V9.37511Z" fill="currentColor"/>
</svg>
