<svg width="72" height="72" viewBox="0 0 72 72" fill="none" xmlns="http://www.w3.org/2000/svg">
<path fill-rule="evenodd" clip-rule="evenodd" d="M5.19131 33.2908C5.19127 49.4164 16.5732 63.2998 32.3855 66.4624C34.7798 66.9412 37.2451 66.9412 39.6393 66.462H39.6401C55.452 63.2993 66.8333 49.4159 66.8338 33.2907V22.3021C66.8338 12.8454 59.1672 5.17923 49.7107 5.17923H22.3141C12.8575 5.17923 5.19131 12.8454 5.19131 22.3021V33.2908ZM27.6507 32.5756C27.6507 31.5189 26.7941 30.6623 25.7374 30.6623C24.6807 30.6623 23.8241 31.5189 23.8241 32.5756V42.8492C23.8241 43.9059 24.6807 44.7625 25.7374 44.7625C26.7941 44.7625 27.6507 43.9059 27.6507 42.8492V32.5756ZM36.0118 30.3775C37.0685 30.3775 37.9251 31.2341 37.9251 32.2908V42.8498C37.9251 43.9065 37.0685 44.7631 36.0118 44.7631C34.9552 44.7631 34.0985 43.9065 34.0985 42.8498V32.2908C34.0985 31.2341 34.9552 30.3775 36.0118 30.3775ZM36.0092 20.3887L36.002 20.3887C33.7672 20.3971 31.5784 21.0245 29.6785 22.2013C28.7801 22.7577 28.503 23.937 29.0594 24.8353C29.6158 25.7336 30.7951 26.0108 31.6934 25.4544C32.9912 24.6506 34.4863 24.2217 36.0128 24.2153C40.6284 24.2172 44.3695 27.9596 44.3695 32.5757V42.8494C44.3695 43.9061 45.2261 44.7627 46.2828 44.7627C47.3394 44.7627 48.1961 43.9061 48.1961 42.8494V32.5757C48.1961 25.8451 42.74 20.3887 36.0092 20.3887Z" fill="currentColor"/>
</svg>
