<svg width="89" height="88" viewBox="0 0 89 88" fill="none" xmlns="http://www.w3.org/2000/svg">
<g id="person">
<g mask="url(#mask0_2301_4198)">
<path id="person_2" d="M44.5001 44C43.0335 44 41.7779 43.4778 40.7335 42.4333C39.689 41.3889 39.1668 40.1333 39.1668 38.6667C39.1668 37.2 39.689 35.9445 40.7335 34.9C41.7779 33.8556 43.0335 33.3333 44.5001 33.3333C45.9668 33.3333 47.2224 33.8556 48.2668 34.9C49.3112 35.9445 49.8335 37.2 49.8335 38.6667C49.8335 40.1333 49.3112 41.3889 48.2668 42.4333C47.2224 43.4778 45.9668 44 44.5001 44ZM33.8335 52V50.9333C33.8335 50.1778 34.0279 49.4833 34.4168 48.85C34.8057 48.2167 35.3224 47.7333 35.9668 47.4C37.3446 46.7111 38.7446 46.1945 40.1668 45.85C41.589 45.5056 43.0335 45.3333 44.5001 45.3333C45.9668 45.3333 47.4113 45.5056 48.8335 45.85C50.2557 46.1945 51.6557 46.7111 53.0335 47.4C53.6779 47.7333 54.1946 48.2167 54.5835 48.85C54.9724 49.4833 55.1668 50.1778 55.1668 50.9333V52C55.1668 52.7333 54.9057 53.3611 54.3835 53.8833C53.8612 54.4056 53.2335 54.6667 52.5001 54.6667H36.5002C35.7668 54.6667 35.139 54.4056 34.6168 53.8833C34.0946 53.3611 33.8335 52.7333 33.8335 52ZM36.5002 52H52.5001V50.9333C52.5001 50.6889 52.439 50.4667 52.3168 50.2667C52.1946 50.0667 52.0335 49.9111 51.8335 49.8C50.6335 49.2 49.4224 48.75 48.2001 48.45C46.9779 48.15 45.7446 48 44.5001 48C43.2557 48 42.0224 48.15 40.8002 48.45C39.5779 48.75 38.3668 49.2 37.1668 49.8C36.9668 49.9111 36.8057 50.0667 36.6835 50.2667C36.5613 50.4667 36.5002 50.6889 36.5002 50.9333V52ZM44.5001 41.3333C45.2335 41.3333 45.8613 41.0722 46.3835 40.55C46.9057 40.0278 47.1668 39.4 47.1668 38.6667C47.1668 37.9333 46.9057 37.3056 46.3835 36.7833C45.8613 36.2611 45.2335 36 44.5001 36C43.7668 36 43.139 36.2611 42.6168 36.7833C42.0946 37.3056 41.8335 37.9333 41.8335 38.6667C41.8335 39.4 42.0946 40.0278 42.6168 40.55C43.139 41.0722 43.7668 41.3333 44.5001 41.3333Z" fill="currentColor"/>
</g>
</g>
</svg>
