<svg width="17" height="16" viewBox="0 0 17 16" fill="none" xmlns="http://www.w3.org/2000/svg">
<rect width="17" height="16" fill="#1E1E1E"/>
<g id="Organisaton">
<path d="M-766 -400C-766 -401.105 -765.105 -402 -764 -402H2280C2281.1 -402 2282 -401.105 2282 -400V619C2282 620.105 2281.1 621 2280 621H-764C-765.105 621 -766 620.105 -766 619V-400Z" fill="#404040"/>
<path d="M-764 -401H2280V-403H-764V-401ZM2281 -400V619H2283V-400H2281ZM2280 620H-764V622H2280V620ZM-765 619V-400H-767V619H-765ZM-764 620C-764.552 620 -765 619.552 -765 619H-767C-767 620.657 -765.657 622 -764 622V620ZM2281 619C2281 619.552 2280.55 620 2280 620V622C2281.66 622 2283 620.657 2283 619H2281ZM2280 -401C2280.55 -401 2281 -400.552 2281 -400H2283C2283 -401.657 2281.66 -403 2280 -403V-401ZM-764 -403C-765.657 -403 -767 -401.657 -767 -400H-765C-765 -400.552 -764.552 -401 -764 -401V-403Z" fill="white" fill-opacity="0.1"/>
<g id="Screen">
<rect x="-686" y="-322" width="1440" height="863" rx="16" fill="#E0E1F8"/>
<g id="Rectangle 155" filter="url(#filter0_d_961_3422)">
<rect x="-606" y="-302" width="1344" height="823" rx="16" fill="white"/>
</g>
<g id="Frame 427319742" clip-path="url(#clip0_961_3422)">
<g id="Frame 427319738">
<g id="Frame 427319717">
<rect x="-136.167" y="-107.5" width="412.333" height="319" rx="11.5" stroke="#EBECEF"/>
<g id="Frame 427319611">
<g id="Frame 427319719">
<g id="new_releases">
<mask id="mask0_961_3422" style="mask-type:alpha" maskUnits="userSpaceOnUse" x="0" y="0" width="17" height="16">
<rect id="Bounding box" x="0.333374" width="16" height="16" fill="#D9D9D9"/>
</mask>
<g mask="url(#mask0_961_3422)">
<path id="new_releases_2" d="M7.63334 8.46723L6.66668 7.51723C6.54445 7.39501 6.39167 7.3339 6.20834 7.3339C6.02501 7.3339 5.86667 7.40057 5.73334 7.5339C5.61112 7.65612 5.55001 7.81168 5.55001 8.00057C5.55001 8.18946 5.61112 8.34501 5.73334 8.46723L7.16668 9.90057C7.30001 10.0339 7.45556 10.1006 7.63334 10.1006C7.81112 10.1006 7.96667 10.0339 8.10001 9.90057L10.9333 7.06723C11.0667 6.9339 11.1306 6.77835 11.125 6.60057C11.1195 6.42279 11.0556 6.26723 10.9333 6.1339C10.8 6.00057 10.6417 5.93112 10.4583 5.92557C10.275 5.92001 10.1167 5.9839 9.98334 6.11723L7.63334 8.46723ZM5.76667 14.5006L4.80001 12.8672L2.96667 12.4672C2.80001 12.4339 2.66667 12.3478 2.56667 12.2089C2.46667 12.07 2.42779 11.9172 2.45001 11.7506L2.63334 9.86723L1.38334 8.4339C1.27223 8.31168 1.21667 8.16723 1.21667 8.00057C1.21667 7.8339 1.27223 7.68946 1.38334 7.56723L2.63334 6.1339L2.45001 4.25057C2.42779 4.0839 2.46667 3.93112 2.56667 3.79223C2.66667 3.65335 2.80001 3.56723 2.96667 3.5339L4.80001 3.1339L5.76667 1.50057C5.85556 1.35612 5.97779 1.2589 6.13334 1.2089C6.2889 1.1589 6.44445 1.16723 6.60001 1.2339L8.33334 1.96723L10.0667 1.2339C10.2222 1.16723 10.3778 1.1589 10.5333 1.2089C10.6889 1.2589 10.8111 1.35612 10.9 1.50057L11.8667 3.1339L13.7 3.5339C13.8667 3.56723 14 3.65335 14.1 3.79223C14.2 3.93112 14.2389 4.0839 14.2167 4.25057L14.0333 6.1339L15.2833 7.56723C15.3945 7.68946 15.45 7.8339 15.45 8.00057C15.45 8.16723 15.3945 8.31168 15.2833 8.4339L14.0333 9.86723L14.2167 11.7506C14.2389 11.9172 14.2 12.07 14.1 12.2089C14 12.3478 13.8667 12.4339 13.7 12.4672L11.8667 12.8672L10.9 14.5006C10.8111 14.645 10.6889 14.7422 10.5333 14.7922C10.3778 14.8422 10.2222 14.8339 10.0667 14.7672L8.33334 14.0339L6.60001 14.7672C6.44445 14.8339 6.2889 14.8422 6.13334 14.7922C5.97779 14.7422 5.85556 14.645 5.76667 14.5006Z" fill="#34C759"/>
</g>
</g>
</g>
</g>
</g>
</g>
</g>
</g>
</g>
<defs>
<filter id="filter0_d_961_3422" x="-610" y="-304" width="1352" height="831" filterUnits="userSpaceOnUse" color-interpolation-filters="sRGB">
<feFlood flood-opacity="0" result="BackgroundImageFix"/>
<feColorMatrix in="SourceAlpha" type="matrix" values="0 0 0 0 0 0 0 0 0 0 0 0 0 0 0 0 0 0 127 0" result="hardAlpha"/>
<feOffset dy="2"/>
<feGaussianBlur stdDeviation="2"/>
<feComposite in2="hardAlpha" operator="out"/>
<feColorMatrix type="matrix" values="0 0 0 0 0 0 0 0 0 0 0 0 0 0 0 0 0 0 0.04 0"/>
<feBlend mode="normal" in2="BackgroundImageFix" result="effect1_dropShadow_961_3422"/>
<feBlend mode="normal" in="SourceGraphic" in2="effect1_dropShadow_961_3422" result="shape"/>
</filter>
<clipPath id="clip0_961_3422">
<rect width="1288" height="629" fill="white" transform="translate(-574 -108)"/>
</clipPath>
</defs>
</svg>
